<?xml version="1.0" standalone="no"?>
<!DOCTYPE svg PUBLIC "-//W3C//DTD SVG 20010904//EN"
 "http://www.w3.org/TR/2001/REC-SVG-20010904/DTD/svg10.dtd">
<svg version="1.0" xmlns="http://www.w3.org/2000/svg"
 width="500.000000pt" height="500.000000pt" viewBox="0 0 500.000000 500.000000"
 preserveAspectRatio="xMidYMid meet">

<g transform="translate(0.000000,500.000000) scale(0.100000,-0.100000)"
fill="#F15647" stroke="none">
<path d="M2286 4349 c-410 -43 -808 -228 -1104 -514 -187 -180 -301 -333 -411
-555 -192 -388 -245 -811 -156 -1246 100 -489 394 -922 818 -1205 216 -143
451 -239 712 -290 106 -21 148 -24 360 -23 222 0 250 2 366 27 386 82 687 240
963 507 383 370 586 846 586 1372 0 241 -27 412 -101 634 -185 556 -641 1011
-1201 1198 -273 91 -559 124 -832 95z m448 -114 c286 -38 533 -130 771 -290
434 -290 709 -722 789 -1235 92 -592 -111 -1184 -547 -1597 -247 -234 -524
-379 -877 -461 -108 -25 -130 -26 -370 -26 -228 0 -266 2 -359 22 -794 174
-1364 800 -1450 1594 -53 481 91 967 399 1343 72 88 227 237 314 301 386 287
859 411 1330 349z"/>
<path d="M1600 3115 l0 -65 385 0 c212 0 385 -2 385 -4 0 -2 -150 -285 -334
-630 l-334 -626 88 0 88 0 351 663 c249 470 351 673 351 695 l0 32 -490 0
-490 0 0 -65z"/>
<path d="M2679 2541 c-177 -57 -302 -194 -355 -391 -23 -88 -24 -271 -1 -364
63 -254 252 -407 501 -406 73 0 182 26 246 57 108 53 200 179 216 296 l7 47
-66 0 -66 0 -12 -42 c-29 -110 -107 -202 -196 -232 -27 -9 -80 -16 -127 -16
-68 0 -90 4 -141 29 -149 70 -229 232 -228 461 0 96 5 128 27 196 59 182 187
284 356 284 154 0 261 -78 310 -226 l22 -64 65 0 66 0 -7 47 c-8 64 -55 161
-102 212 -46 51 -105 87 -185 112 -81 25 -251 25 -330 0z"/>
</g>
</svg>
